<?xml version="1.0" standalone="no"?> <!DOCTYPE svg PUBLIC "-//W3C//DTD SVG 20010904//EN" "http://www.w3.org/TR/2001/REC-SVG-20010904/DTD/svg10.dtd"> <svg version="1.0" xmlns="http://www.w3.org/2000/svg" width="386.000000pt" height="415.000000pt" viewBox="0 0 386.000000 415.000000" preserveAspectRatio="xMidYMid meet"> <g transform="translate(0.000000,415.000000) scale(0.066667,-0.066667)" fill="#efac07" stroke="none"> <path d="M2910 5991 c-12 -2 -48 -8 -79 -13 -42 -7 -61 -19 -71 -46 -8 -20 -21 -37 -28 -37 -19 0 -47 -84 -47 -143 0 -49 61 -141 120 -183 28 -19 30 -39 30 -259 0 -131 5 -241 11 -245 6 -4 10 -222 8 -485 -2 -263 -6 -704 -8 -980 -2 -276 1 -560 7 -630 26 -310 10 -1017 -23 -1039 -10 -6 -11 -11 -2 -11 8 0 15 -19 15 -41 0 -23 6 -108 13 -190 l12 -148 -35 11 c-20 6 -71 16 -114 22 -102 13 -93 -19 -95 343 -2 368 -8 348 107 348 83 0 114 16 70 36 -11 5 -12 12 -3 16 11 6 16 380 8 567 -1 6 -41 11 -91 11 l-90 0 0 773 0 772 98 0 97 0 0 74 0 75 -94 4 -93 5 -5 258 c-3 224 -1 259 19 259 13 0 23 6 23 14 0 8 14 18 30 24 85 26 95 257 13 288 -24 9 -43 26 -43 38 0 25 -61 56 -109 56 -45 0 -131 -54 -131 -82 0 -13 -10 -23 -22 -23 -75 0 -74 -188 2 -258 106 -97 112 -104 103 -129 -4 -14 -7 -97 -6 -183 3 -182 3 -285 0 -1222 -1 -380 1 -707 6 -728 11 -54 10 -497 -1 -847 -6 -174 -4 -345 5 -405 14 -104 -7 -177 -28 -94 -7 32 -54 62 -159 103 -59 24 -65 50 -65 285 l0 177 77 39 c51 26 89 36 114 30 26 -7 35 -4 31 10 -10 29 -84 32 -125 6 -20 -13 -48 -24 -63 -23 -29 0 61 49 118 64 l36 9 2 315 3 315 -93 4 -92 5 0 765 0 765 99 4 100 4 -2 71 -2 71 -93 4 c-102 5 -109 14 -110 125 0 47 7 59 43 74 95 42 157 269 74 269 -8 0 -27 15 -41 33 -38 47 -232 50 -266 4 -12 -16 -34 -45 -51 -63 -16 -19 -29 -41 -29 -50 0 -9 -7 -12 -15 -6 -19 11 -19 7 2 -51 9 -26 43 -74 75 -105 32 -32 58 -71 58 -89 0 -17 14 -41 31 -53 43 -30 51 -108 30 -299 -9 -87 -17 -309 -17 -493 0 -184 -6 -338 -13 -343 -24 -14 -32 -252 -10 -274 31 -31 42 -301 45 -1032 1 -543 5 -674 22 -694 18 -22 17 -25 -5 -25 -14 0 -20 7 -15 17 8 11 0 13 -25 5 -19 -6 -42 -11 -50 -12 -10 -2 -14 86 -13 241 2 145 -2 244 -11 244 -8 0 -14 -20 -14 -45 0 -33 -6 -42 -23 -35 -12 4 -22 27 -22 51 0 39 8 51 67 101 23 19 31 80 13 98 -6 6 -21 1 -34 -11 -47 -41 -289 -66 -381 -40 -491 141 -640 446 -468 957 87 258 91 265 157 311 76 53 123 49 152 -11 74 -150 364 -145 443 7 26 49 -5 147 -46 147 -13 0 -23 7 -23 15 0 63 -371 119 -436 65 -12 -9 -65 -35 -119 -57 -53 -23 -113 -56 -132 -73 -138 -124 -222 -256 -206 -320 5 -21 3 -34 -4 -29 -8 5 -25 -30 -39 -78 -14 -47 -31 -106 -38 -130 -29 -99 -35 -176 -14 -190 17 -11 17 -15 0 -26 -34 -22 5 -320 55 -417 24 -47 36 -114 19 -103 -9 5 -16 3 -16 -6 0 -9 10 -16 21 -16 12 0 31 -3 42 -7 55 -21 62 19 15 90 -27 41 -50 99 -56 140 -5 38 -15 103 -23 145 -42 222 12 540 116 684 28 38 50 77 50 86 0 9 25 34 56 55 31 21 79 55 107 75 29 20 59 37 68 36 9 0 3 -9 -13 -19 -28 -17 -126 -113 -175 -172 -13 -16 -33 -55 -43 -87 -10 -32 -25 -66 -32 -75 -62 -79 -134 -499 -91 -530 10 -8 58 -149 64 -188 2 -9 15 -32 31 -51 15 -20 28 -44 28 -53 1 -9 22 -27 49 -40 27 -13 62 -45 79 -71 16 -26 37 -47 46 -47 8 -1 30 -18 48 -39 18 -20 42 -37 53 -37 11 0 51 -23 88 -51 37 -29 92 -56 122 -62 77 -14 79 -77 3 -69 -9 1 -17 -16 -18 -38 -2 -42 -23 -62 -62 -59 -47 5 -250 76 -271 96 -11 10 -55 37 -97 58 -43 22 -92 55 -111 75 -18 19 -37 35 -42 35 -18 0 -157 142 -157 161 0 11 -6 19 -12 19 -7 0 -22 19 -34 41 -12 23 -25 45 -29 49 -27 27 -58 109 -67 176 -6 44 -17 83 -24 87 -20 13 -14 477 8 549 25 87 51 92 46 10 -27 -402 -27 -453 5 -548 18 -51 32 -101 32 -111 0 -75 146 -292 176 -262 8 8 -22 80 -41 99 -76 76 -105 335 -91 837 4 134 8 154 29 150 29 -6 42 -147 20 -226 -7 -26 -10 -57 -7 -67 13 -39 30 -16 47 67 10 48 26 107 34 132 9 24 23 70 31 101 9 33 34 71 60 90 25 19 62 51 84 72 57 54 148 119 167 119 9 0 16 6 16 14 0 8 36 18 80 24 55 7 83 18 93 38 46 89 144 253 156 261 7 4 18 30 24 55 6 26 40 106 75 178 36 72 69 147 74 167 27 106 211 157 276 76 18 -23 19 -20 10 20 -6 24 -10 68 -9 96 2 58 -17 75 -81 76 -72 1 -113 47 -113 128 0 49 -143 198 -234 244 -86 44 -291 59 -379 28 -36 -12 -75 -19 -86 -15 -12 5 -21 2 -21 -7 0 -8 -32 -28 -72 -45 -175 -76 -199 -301 -40 -378 74 -36 142 -38 258 -6 47 13 114 29 147 36 34 7 67 14 75 16 100 24 64 -122 -67 -271 -25 -29 -46 -60 -46 -69 0 -10 -24 -43 -53 -75 -54 -59 -112 -158 -112 -191 0 -11 -25 -46 -55 -78 -30 -33 -63 -80 -74 -104 -10 -25 -40 -65 -66 -89 -25 -23 -60 -69 -76 -100 -16 -32 -53 -82 -83 -112 -45 -45 -52 -60 -43 -98 11 -50 -7 -58 -34 -15 -10 17 -43 34 -75 39 -31 5 -71 16 -88 25 -44 21 -199 -14 -237 -53 -37 -37 -14 -80 38 -73 198 27 272 -23 189 -127 -55 -68 -97 -168 -145 -342 -68 -249 -20 -544 119 -726 57 -75 229 -247 286 -287 28 -20 60 -48 70 -62 11 -14 39 -30 63 -35 24 -6 61 -26 83 -46 22 -21 49 -37 61 -37 12 0 51 -13 86 -29 76 -34 237 -88 311 -104 174 -39 330 -183 330 -305 0 -49 -48 -147 -72 -147 -7 0 -21 -16 -31 -34 -12 -22 -45 -43 -85 -55 -39 -11 -67 -28 -67 -41 0 -11 -18 -28 -41 -36 -23 -9 -61 -25 -86 -36 -25 -11 -61 -25 -79 -30 -19 -6 -34 -16 -34 -24 0 -8 -22 -14 -49 -14 -27 -1 -89 -21 -138 -45 -74 -36 -110 -44 -198 -45 -159 0 -170 -22 -131 -266 l7 -49 1956 0 c1076 0 1959 5 1963 11 4 7 9 79 11 162 l4 150 -81 -5 c-55 -2 -104 6 -149 25 -37 16 -106 41 -153 54 -48 14 -102 38 -121 53 -18 14 -59 34 -90 42 -31 9 -77 33 -102 54 -26 22 -64 43 -86 49 -67 16 -108 51 -154 131 -123 214 32 339 654 530 16 5 56 28 88 52 32 23 66 42 75 43 9 0 40 20 68 45 29 24 60 44 69 44 9 0 39 24 67 53 28 28 60 52 70 52 11 0 20 10 20 23 0 12 7 22 15 22 8 0 15 10 15 23 0 12 6 22 14 22 25 0 151 189 187 280 98 244 67 654 -60 781 -12 12 -31 41 -43 64 -12 23 -32 45 -45 50 -13 5 -23 27 -23 52 0 69 101 99 221 64 109 -31 106 67 -3 105 -121 43 -382 -2 -347 -59 5 -8 1 -17 -8 -20 -12 -4 -16 -57 -13 -178 2 -94 4 -252 3 -351 -1 -124 4 -183 17 -191 13 -9 13 -17 -1 -38 -35 -50 -53 -101 -55 -160 -2 -65 27 -90 41 -36 5 19 3 37 -5 39 -8 3 -15 15 -15 26 0 12 9 18 21 13 42 -16 65 157 66 482 1 165 1 313 2 330 1 16 21 41 46 55 l45 25 -30 -40 c-37 -50 -40 -106 -16 -288 11 -78 18 -205 17 -281 -2 -105 2 -139 17 -139 14 0 13 -5 -3 -15 -12 -8 -16 -15 -7 -15 8 0 7 -5 -2 -11 -25 -17 -43 -111 -20 -106 10 3 21 -4 25 -14 4 -11 -6 -19 -25 -19 -18 0 -31 -10 -31 -22 0 -33 6 -46 19 -42 6 2 11 -3 11 -13 0 -9 -11 -12 -24 -7 -16 6 -26 -1 -32 -21 -4 -16 -13 -30 -21 -30 -7 0 -13 -8 -13 -19 -1 -10 -14 -35 -30 -56 -35 -45 -38 -62 -7 -50 12 4 22 17 22 28 0 23 45 72 56 61 12 -12 -73 -114 -95 -114 -12 0 -58 -37 -103 -83 -45 -45 -89 -82 -97 -82 -9 0 -16 -7 -16 -15 0 -9 -12 -20 -26 -26 -15 -5 -46 -25 -69 -44 -23 -19 -55 -35 -70 -35 -16 0 -32 -7 -37 -15 -6 -8 -24 -15 -41 -15 -36 0 -147 -46 -147 -60 0 -6 -20 -7 -45 -3 -46 7 -75 57 -53 92 17 28 -14 17 -40 -13 -21 -24 -34 -27 -73 -16 -27 8 -54 10 -62 6 -18 -11 1 -96 27 -122 27 -27 27 -48 -1 -59 -13 -4 -19 -14 -15 -22 9 -13 -12 -19 -49 -14 -26 3 -109 -61 -109 -84 0 -49 -50 -73 -127 -61 -42 6 -87 13 -101 15 -13 1 -22 8 -18 14 4 7 -9 12 -30 12 -20 0 -41 -6 -45 -13 -5 -7 -31 -9 -57 -3 -48 10 -49 11 -44 80 5 70 -26 98 -64 60 -13 -13 -125 -48 -132 -41 -2 2 -1 128 3 279 l8 276 52 -5 c29 -3 59 -12 67 -19 56 -54 61 -26 61 360 l0 375 -98 4 c-82 4 -97 9 -96 31 0 14 2 361 3 770 l3 743 106 -5 c99 -4 105 -3 98 26 -5 16 -9 51 -9 78 l0 49 -97 0 -97 0 -4 236 c-5 269 -3 289 31 289 127 2 174 268 59 335 -24 13 -40 31 -36 38 5 8 -2 18 -15 23 -213 82 -412 -266 -216 -378 47 -26 51 -39 46 -117 -2 -31 5 -50 20 -56 20 -8 22 -62 16 -441 -4 -237 -6 -688 -4 -1001 5 -1254 0 -1647 -21 -1660 -15 -10 -16 -16 -1 -25 31 -20 45 -288 15 -288 -13 0 -26 8 -30 19 -4 12 -37 19 -94 19 l-87 0 -1 345 c-2 389 -15 355 124 330 47 -8 63 -6 56 5 -6 10 -26 18 -44 18 -32 2 -32 2 2 12 19 5 34 15 34 21 -1 6 -1 139 -1 295 l0 285 -86 4 -86 5 3 750 c1 412 3 758 3 768 1 13 30 19 92 19 l91 0 -8 64 c-4 35 -8 69 -8 75 -1 6 -38 11 -83 11 -76 0 -83 3 -83 34 0 18 -4 165 -9 326 -20 636 -28 571 86 668 90 76 112 191 57 294 -24 45 -136 91 -194 79z m-1113 -2444 c81 -24 108 -54 108 -118 0 -77 -159 -126 -250 -79 -90 46 -102 190 -17 190 19 0 45 7 57 15 12 8 23 15 24 15 0 0 35 -10 78 -23z m-312 -22 c19 -13 19 -15 -3 -15 -14 0 -29 7 -34 15 -12 19 8 19 37 0z m-720 -181 c0 -21 -19 -16 -60 16 l-37 30 48 -17 c27 -9 49 -22 49 -29z m15 -449 c0 -8 -3 -15 -7 -15 -3 0 -10 7 -15 15 -6 8 -3 15 6 15 9 0 16 -7 16 -15z m175 5 c-5 -5 -14 -5 -20 0 -6 6 -1 10 10 10 11 0 16 -4 10 -10z m2328 -391 l-3 -236 -11 150 c-11 133 -4 322 10 322 3 0 5 -106 4 -236z m-663 196 c-5 -5 -10 -1 -10 10 0 11 5 16 10 10 6 -5 6 -14 0 -20z m349 -114 c0 -31 -5 -56 -11 -56 -7 0 -11 -22 -8 -49 l4 -48 -14 52 c-15 54 -16 191 -2 217 11 20 29 -46 31 -116z m-349 61 c-5 -12 -8 -8 -9 9 0 16 3 25 8 20 5 -5 6 -18 1 -29z m0 -83 c-3 -15 -7 -6 -7 19 0 24 3 36 7 26 4 -10 4 -30 0 -45z m0 -83 c-4 -10 -8 -2 -8 19 0 21 4 29 8 19 4 -11 4 -27 0 -38z m53 -202 c-28 -10 -66 8 -56 26 7 10 21 9 43 -2 21 -12 26 -20 13 -24z m678 -47 c5 -7 -9 -9 -29 -6 -20 4 -37 10 -37 13 0 12 58 6 66 -7z m94 -42 c-5 -5 -14 -5 -20 0 -5 6 -1 10 10 10 11 0 16 -4 10 -10z m-2580 -45 c-5 -5 -10 -1 -10 10 0 11 5 16 10 10 6 -5 6 -14 0 -20z m71 -58 c5 -14 2 -20 -6 -14 -8 5 -15 15 -15 23 0 21 11 17 21 -9z m112 -125 c-10 -3 -27 6 -38 21 -33 45 -23 54 18 18 25 -21 32 -35 20 -39z m737 21 c0 -13 -10 -23 -23 -23 -19 0 -20 4 -4 22 25 28 27 28 27 1z m90 -47 c0 45 66 -69 72 -124 4 -38 12 -76 19 -85 17 -22 29 -95 19 -120 -9 -25 -65 -30 -65 -6 0 9 -12 14 -26 12 -15 -1 -59 2 -98 9 l-71 11 47 60 c43 54 47 69 45 149 -4 102 6 128 37 102 11 -10 21 -13 21 -8z m-740 -1 c-5 -5 -14 -5 -20 0 -5 5 -1 10 10 10 11 0 16 -5 10 -10z m3005 -140 c0 -8 -3 -15 -7 -15 -3 0 -10 7 -15 15 -6 8 -3 15 6 15 9 0 16 -7 16 -15z m-7 -135 c-6 -8 -21 -15 -35 -15 -22 0 -22 2 -3 15 29 19 49 19 38 0z m-2078 -97 c0 -14 -14 -23 -34 -23 -33 1 -33 2 -4 23 36 27 38 27 38 0z m1225 -11 c-5 -12 -8 -8 -9 9 0 16 3 25 8 20 5 -5 6 -18 1 -29z m-1315 -20 c-11 -12 -23 -19 -28 -14 -5 5 1 15 13 23 32 20 36 17 15 -9z m70 -17 c-5 -5 -15 -5 -20 0 -5 6 -1 10 10 10 11 0 16 -4 10 -10z m1656 -62 l-11 -40 -805 -4 c-443 -3 -805 1 -805 8 0 7 -10 13 -22 13 -12 0 -18 -6 -14 -12 4 -7 -3 -13 -16 -13 -12 0 -23 10 -23 21 0 12 -4 32 -9 45 -8 21 81 23 854 23 l862 0 -11 -41z m-1139 -136 c-34 -22 6 -34 53 -16 23 9 75 12 117 7 55 -7 69 -5 53 6 -16 11 12 15 105 15 120 -1 125 -3 83 -22 -25 -11 -39 -21 -32 -21 8 -1 9 -6 4 -11 -6 -6 -19 2 -30 17 -15 20 -31 25 -61 17 -43 -11 -40 -39 5 -39 38 0 100 -60 112 -109 5 -22 19 -41 31 -41 12 0 25 -7 30 -15 6 -8 0 -11 -14 -6 -23 9 -50 -32 -33 -49 28 -28 148 14 163 56 8 24 26 44 39 44 18 0 20 4 7 17 -23 23 -66 5 -55 -24 10 -25 -17 -32 -31 -8 -6 8 -20 15 -32 15 -13 0 -19 -7 -13 -15 5 -8 1 -15 -8 -15 -10 0 -25 20 -35 45 -9 25 -22 45 -28 45 -51 0 5 85 65 100 135 32 485 19 396 -15 -34 -13 -28 -51 13 -78 42 -27 59 -62 43 -87 -26 -41 -20 -85 10 -85 17 0 31 -7 31 -15 0 -8 -19 -15 -41 -15 -32 0 -37 -4 -19 -15 18 -12 15 -15 -13 -15 -20 0 -44 -10 -53 -22 -24 -32 -110 -43 -145 -18 -16 11 -24 25 -19 30 6 6 -8 10 -29 10 -22 0 -43 7 -48 15 -22 35 -68 16 -68 -28 0 -44 -59 -135 -60 -93 0 12 11 33 25 49 13 15 17 27 8 27 -9 0 -28 -20 -42 -44 -15 -24 -32 -41 -38 -37 -6 4 -19 -7 -28 -24 -22 -41 -151 -43 -191 -3 -14 15 -45 39 -68 53 -30 19 -41 38 -41 72 0 43 -3 46 -41 38 -23 -5 -63 -13 -90 -19 -27 -5 -49 -18 -49 -29 0 -23 -67 -42 -106 -29 -16 5 -29 19 -29 31 0 11 -13 21 -30 21 -16 0 -30 6 -30 12 0 7 -17 22 -37 33 -30 16 -38 32 -38 74 -1 42 -4 48 -15 29 -9 -15 -30 -24 -53 -21 -20 2 -37 -2 -37 -9 0 -7 6 -13 13 -13 17 0 49 -74 39 -91 -5 -8 -1 -14 8 -14 9 0 13 -7 8 -15 -5 -8 21 -47 59 -86 37 -39 68 -63 68 -52 0 10 7 18 15 18 8 0 10 -10 6 -21 -5 -13 3 -24 19 -28 15 -4 -56 -8 -159 -9 -102 -1 -182 2 -176 8 5 5 -4 21 -21 36 -19 16 -24 30 -15 36 9 5 16 25 16 44 0 20 21 52 50 78 46 40 49 48 38 97 -7 30 -9 69 -6 87 3 18 -1 32 -11 32 -43 0 17 28 70 32 53 5 61 1 77 -38 14 -34 21 -39 31 -23 8 12 27 29 44 38 22 13 28 30 25 64 l-5 47 132 0 c80 0 124 -6 112 -13z m1048 -66 c0 13 27 19 86 19 l87 0 1 -71 c2 -78 8 -111 36 -214 11 -37 22 -59 26 -49 3 11 14 19 24 19 10 -1 2 -14 -18 -30 -33 -28 -33 -30 -7 -39 100 -32 106 -40 36 -53 -36 -7 -71 -19 -76 -28 -6 -10 -72 -14 -181 -11 -112 3 -160 9 -138 17 19 7 34 18 34 26 0 7 6 13 14 13 46 0 140 117 128 159 -6 24 -14 53 -16 64 -2 11 -18 33 -35 49 -22 21 -31 48 -31 92 0 47 4 57 15 41 10 -15 15 -16 15 -4z m-1297 -281 c5 -8 -2 -15 -15 -15 -12 0 -23 7 -23 15 0 8 6 15 14 15 8 0 18 -7 24 -15z m435 -121 c6 -9 6 -20 1 -25 -9 -9 -69 46 -69 63 0 13 56 -19 68 -38z m-823 -17 c-5 -12 -8 -8 -9 9 0 16 3 25 8 20 5 -5 6 -18 1 -29z m495 -37 c-5 -6 -10 -1 -10 10 0 11 5 16 10 10 6 -5 6 -14 0 -20z m140 19 c0 -3 -10 -10 -23 -15 -14 -5 -20 -2 -14 6 8 14 37 21 37 9z m765 -11 c0 -16 -71 -17 -80 -2 -4 6 13 12 36 13 24 1 44 -4 44 -11z m112 0 c-10 -16 -67 -18 -67 -2 0 6 17 12 37 14 21 1 34 -4 30 -12z m-1496 -7 c-5 -5 -18 -6 -29 -1 -12 5 -8 8 9 9 16 0 25 -3 20 -8z m1928 -1 c-11 -4 -27 -4 -38 0 -10 4 -2 8 19 8 21 0 29 -4 19 -8z m469 -66 c57 -5 84 -11 60 -13 -86 -6 -113 -29 -38 -32 72 -3 168 -23 143 -30 -83 -22 -215 -30 -623 -37 -499 -8 -626 -9 -970 -7 -133 0 -248 0 -255 -1 -7 -2 -16 -2 -20 0 -4 1 -264 5 -577 9 -314 4 -597 13 -630 21 -56 11 -57 13 -15 14 25 1 52 8 60 16 8 7 28 16 45 20 16 3 -28 12 -98 20 -107 11 -51 15 353 21 678 12 2439 11 2565 -1z m137 -9 c-5 -6 -14 -6 -20 0 -5 6 -1 10 10 10 11 0 16 -4 10 -10z"/> <path d="M2340 1290 c0 -8 20 -15 45 -15 32 0 42 -6 36 -21 -6 -16 6 -24 42 -28 35 -4 26 -7 -30 -9 -69 -2 -79 -6 -72 -28 5 -15 1 -37 -8 -49 -13 -19 -15 -18 -7 4 12 39 -11 31 -30 -11 -15 -30 -12 -40 15 -63 44 -39 164 -26 171 18 6 35 72 88 93 74 9 -5 12 -15 7 -23 -5 -8 -2 -14 7 -14 9 0 16 -10 16 -22 0 -13 7 -23 15 -23 8 0 15 6 15 14 0 8 -7 18 -15 24 -8 5 -15 21 -15 36 0 15 -9 31 -20 35 -31 12 -115 -30 -115 -57 0 -16 -8 -22 -22 -17 -14 6 -23 0 -23 -13 0 -24 -14 -27 -50 -13 -24 9 -17 51 8 51 8 0 11 -10 6 -23 -7 -19 -2 -18 28 4 48 36 85 101 74 130 -7 18 -3 22 15 15 13 -5 24 -2 24 6 0 8 -11 19 -24 24 -39 15 -186 10 -186 -6z"/> <path d="M3188 1290 c5 -8 20 -16 34 -16 16 -1 18 -4 7 -9 -35 -14 -20 -35 25 -35 58 0 91 14 91 38 0 11 8 23 19 27 10 4 -27 8 -84 9 -64 1 -98 -5 -92 -14z"/> <path d="M2705 1220 c6 -5 15 -5 20 0 6 6 1 10 -10 10 -11 0 -15 -4 -10 -10z"/> <path d="M2746 1186 c-21 -38 -21 -39 14 -42 17 -1 30 4 30 11 0 7 4 23 9 36 13 35 -34 30 -53 -5z"/> <path d="M3285 1197 c0 -20 93 -87 121 -87 9 0 14 21 11 49 -5 52 -132 89 -132 38z m105 -12 c0 -8 -6 -15 -14 -15 -8 0 -18 7 -23 15 -6 8 1 15 14 15 12 0 23 -7 23 -15z"/> <path d="M2693 1121 c-38 -21 -29 -71 13 -71 51 0 84 15 84 38 0 11 8 22 19 26 10 4 -7 9 -38 13 -30 4 -66 1 -78 -6z"/> <path d="M2915 1115 c6 -5 15 -5 20 0 6 6 1 10 -10 10 -11 0 -15 -4 -10 -10z"/> <path d="M3191 1105 c-11 -31 40 -54 120 -55 61 0 76 5 70 21 -10 26 -81 42 -81 18 0 -11 -4 -11 -12 1 -16 25 -90 37 -97 15z"/> <path d="M2815 1061 c-7 -27 -20 -41 -40 -41 -24 0 -27 -6 -16 -34 7 -19 23 -32 37 -29 15 3 24 -6 24 -23 0 -49 28 -63 78 -38 35 18 43 30 38 58 -5 27 2 38 32 49 l40 15 -39 1 c-21 0 -46 9 -56 19 -10 10 -22 13 -28 7 -6 -6 -3 -18 7 -28 22 -22 24 -87 3 -87 -8 0 -16 12 -16 26 -1 15 -13 53 -28 86 l-26 60 -10 -41z"/> <path d="M2090 815 c6 -6 15 -6 20 0 6 6 1 10 -10 10 -11 0 -15 -4 -10 -10z"/> <path d="M3755 815 c6 -6 15 -6 20 0 6 6 1 10 -10 10 -11 0 -15 -4 -10 -10z"/> <path d="M3471 5086 c-127 -77 -140 -182 -36 -287 41 -43 75 -88 75 -101 0 -13 10 -35 23 -49 21 -23 22 -69 5 -436 -18 -406 -19 -1143 -1 -1204 5 -17 12 -355 17 -751 5 -401 14 -701 20 -678 12 42 13 43 42 17 31 -28 40 -23 141 76 20 20 51 68 62 97 4 12 17 39 28 60 23 42 23 43 23 105 0 45 1 45 64 36 68 -11 127 -35 87 -36 -16 0 -18 -4 -5 -17 9 -9 25 -11 36 -4 11 7 43 14 71 16 27 2 57 10 67 17 10 8 35 18 55 23 21 5 61 29 89 54 28 26 61 46 73 46 13 0 45 24 73 52 28 29 56 53 62 54 41 3 135 216 162 366 10 54 35 98 57 98 26 0 -2 -132 -60 -290 -12 -31 -17 -64 -11 -73 5 -10 3 -12 -7 -7 -23 15 -39 -48 -17 -73 10 -12 30 -22 45 -22 15 0 31 -7 37 -15 5 -8 -5 -15 -21 -15 -16 0 -46 -20 -65 -45 -21 -26 -51 -46 -74 -48 -25 -2 -37 -10 -32 -23 4 -11 -4 -19 -23 -19 -16 0 -34 -10 -38 -22 -6 -15 -30 -23 -70 -23 -33 0 -60 -5 -60 -11 0 -6 -27 -24 -60 -40 -33 -16 -60 -34 -60 -41 0 -32 119 -10 217 40 57 28 116 52 131 52 15 0 35 14 45 30 11 17 27 30 37 30 9 0 21 10 25 23 5 12 19 22 31 22 17 0 74 73 97 126 4 8 21 28 38 45 38 38 72 125 53 137 -24 15 -46 -9 -36 -39 6 -21 2 -29 -16 -29 -13 0 -22 -8 -18 -18 3 -11 -7 -32 -22 -48 -15 -16 -27 -39 -27 -49 0 -36 -41 -21 -49 18 -5 26 0 37 15 37 16 0 20 10 13 39 -6 21 -4 35 3 30 36 -22 133 357 108 426 -1 4 -4 37 -7 72 -2 35 -11 79 -19 97 -23 50 -64 191 -64 222 0 15 -7 31 -15 37 -8 5 -15 21 -15 37 0 15 -10 38 -23 50 -12 13 -24 40 -25 62 -2 21 -9 38 -15 38 -7 0 -12 17 -12 38 0 23 -8 37 -22 37 -13 0 -23 6 -23 13 0 7 -17 30 -37 52 l-37 40 35 0 c58 0 143 -119 176 -243 15 -58 35 -115 44 -126 9 -11 14 -29 10 -39 -5 -17 21 -57 39 -57 10 0 8 80 -2 97 -40 66 -3 209 61 243 25 13 39 27 31 33 -8 5 -21 21 -29 34 -7 14 -42 56 -77 93 -35 38 -64 76 -64 86 0 11 -26 53 -59 95 -32 42 -80 117 -107 167 -27 49 -68 109 -91 134 -24 24 -43 53 -43 65 0 19 -80 134 -108 153 -6 5 -20 29 -31 53 -30 66 -87 157 -100 157 -20 0 -47 78 -38 107 9 29 87 41 103 15 5 -8 27 -17 50 -22 23 -4 87 -18 144 -31 158 -37 238 -10 315 103 68 102 50 167 -69 249 -151 103 -327 142 -476 104 -37 -9 -80 -18 -94 -20 -15 -1 -32 -10 -38 -19 -6 -9 -33 -28 -61 -43 -90 -46 -182 -198 -169 -280 4 -27 -21 -35 -150 -51 -114 -14 -145 -2 -156 60 -13 69 0 102 51 125 55 24 126 125 126 178 0 39 -15 56 -111 129 -46 35 -157 34 -217 -3z m469 -644 c10 -1 22 -23 28 -49 6 -27 36 -99 67 -162 30 -62 74 -152 97 -200 23 -48 48 -90 55 -95 7 -4 13 -17 13 -29 0 -21 35 -78 109 -173 64 -85 57 -100 -49 -92 -154 11 -247 -8 -315 -64 -33 -28 -67 -53 -75 -55 -63 -21 -37 -154 38 -193 24 -12 49 -29 54 -36 47 -64 312 11 355 100 11 23 27 41 36 41 24 0 146 -80 146 -97 1 -7 14 -41 30 -75 80 -168 109 -249 123 -352 18 -128 9 -361 -17 -428 -18 -48 -176 -218 -202 -218 -9 0 -40 -19 -68 -42 -156 -124 -527 -136 -643 -20 -37 37 -92 129 -92 154 2 95 138 205 296 239 l79 16 0 148 0 148 -191 -3 -191 -2 4 764 c2 423 10 768 17 772 11 7 240 9 296 3z m621 -732 c10 -19 32 -36 50 -40 17 -3 -2 -6 -43 -7 -59 -1 -68 2 -42 12 45 19 43 32 -3 24 -43 -8 -67 18 -36 37 11 8 13 14 4 14 -9 0 -16 10 -16 21 0 29 61 -15 86 -61z m-80 -111 c77 -43 92 -59 53 -59 -17 0 -34 5 -36 12 -3 7 -36 27 -73 45 -49 24 -58 33 -34 33 18 0 59 -14 90 -31z m-329 -46 c151 -36 133 -192 -24 -217 -181 -29 -283 153 -120 213 66 23 64 23 144 4z m266 -58 c5 -8 2 -15 -6 -15 -8 0 -19 7 -24 15 -6 8 -3 15 5 15 8 0 19 -7 25 -15z m92 -31 c8 -8 35 -18 59 -20 24 -3 44 -14 44 -26 1 -11 9 -40 19 -63 10 -23 18 -48 18 -55 0 -7 10 -32 22 -55 83 -157 113 -270 121 -447 5 -118 -9 -84 -27 67 -8 62 -73 262 -89 272 -8 5 -13 13 -12 19 17 66 -133 294 -193 294 -8 0 -19 7 -24 15 -13 20 42 19 62 -1z m238 -704 c5 -8 2 -15 -7 -15 -9 0 -16 7 -16 15 0 8 3 15 7 15 3 0 10 -7 16 -15z m2 -70 c-5 -5 -10 -1 -10 10 0 11 5 16 10 10 6 -5 6 -14 0 -20z m-1100 -612 c6 -14 0 -23 -13 -23 -12 0 -22 10 -22 23 0 12 6 22 13 22 8 0 18 -10 22 -22z"/> <path d="M2106 4140 c0 -111 2 -157 5 -101 3 55 3 147 0 202 -3 56 -5 10 -5 -101z"/> <path d="M3482 4155 c0 -21 4 -29 8 -19 4 11 4 27 0 38 -4 10 -8 2 -8 -19z"/> <path d="M3485 3968 c0 -58 3 -80 6 -49 3 31 3 78 0 105 -3 27 -6 1 -6 -56z"/> <path d="M2133 3788 c0 -25 4 -34 7 -19 4 15 4 35 0 45 -4 10 -7 -2 -7 -26z"/> <path d="M3486 3390 c0 -153 2 -215 5 -139 3 77 3 201 0 278 -3 76 -5 14 -5 -139z"/> <path d="M2131 3141 c1 -17 4 -21 9 -9 5 11 4 24 -1 29 -5 5 -8 -4 -8 -20z"/> <path d="M1818 2749 l5 -146 60 -9 c33 -5 96 -27 141 -49 45 -22 83 -40 84 -40 1 0 0 15 -2 34 -2 18 -4 106 -5 195 l-1 161 -143 0 -143 0 4 -146z"/> <path d="M1170 2190 c0 -11 5 -15 10 -10 6 6 6 15 0 20 -5 6 -10 1 -10 -10z"/> <path d="M1208 2160 c-6 -8 1 -15 14 -15 12 0 23 -5 23 -11 0 -7 15 -21 34 -32 27 -17 24 -11 -11 26 -49 53 -48 52 -60 32z"/> <path d="M4594 2150 c-11 -4 -19 -15 -19 -23 0 -10 7 -10 20 1 11 9 26 12 33 6 6 -6 7 -3 1 7 -6 11 -12 18 -14 18 -1 -1 -11 -5 -21 -9z"/> <path d="M1056 2123 c-12 -12 -10 -23 7 -38 20 -19 21 -18 13 4 -15 39 5 31 72 -28 33 -29 44 -46 26 -37 -41 20 -43 12 -8 -29 14 -16 40 -30 58 -30 17 0 48 -15 68 -34 67 -61 253 -100 253 -52 0 21 -156 86 -205 86 -18 0 -36 11 -41 24 -5 14 -19 20 -32 15 -13 -5 -20 -3 -15 4 10 18 -20 41 -69 52 -22 5 -43 22 -47 38 -9 33 -58 49 -80 25z"/> <path d="M2481 1928 c0 -91 2 -126 5 -79 3 48 3 122 0 165 -3 43 -5 4 -5 -86z"/> </g> </svg>